<?xml version="1.0" standalone="no"?>
<!DOCTYPE svg PUBLIC "-//W3C//DTD SVG 20010904//EN"
 "http://www.w3.org/TR/2001/REC-SVG-20010904/DTD/svg10.dtd">
<svg version="1.0" xmlns="http://www.w3.org/2000/svg"
 width="494.000000pt" height="494.000000pt" viewBox="0 0 494.000000 494.000000"
 preserveAspectRatio="xMidYMid meet">
<metadata>
Created by potrace 1.12, written by Peter Selinger 2001-2015
</metadata>
<g transform="translate(0.000000,494.000000) scale(0.100000,-0.100000)"
fill="#000000" stroke="none">
<path d="M1300 4426 c-547 -7 -1001 -15 -1009 -20 -14 -9 -13 -43 6 -288 3
-49 2 -78 -4 -78 -20 0 -106 -85 -119 -117 -32 -76 -12 -154 60 -231 25 -27
46 -57 46 -67 0 -10 -49 -348 -110 -750 -60 -403 -110 -735 -110 -738 0 -3
111 -83 247 -178 137 -95 284 -198 328 -229 116 -83 601 -423 734 -516 62 -43
132 -92 155 -108 22 -16 199 -139 391 -274 193 -135 378 -265 412 -289 l61
-43 36 17 c41 19 36 7 121 318 214 784 377 1373 384 1390 7 17 27 24 117 38
60 10 112 21 117 26 12 12 148 543 145 564 -2 15 -242 139 -981 509 -539 269
-977 492 -974 494 4 5 176 -5 382 -21 33 -2 347 -23 698 -46 l638 -42 152 17
c84 10 162 20 175 23 l22 5 0 274 0 273 -67 20 c-38 11 -115 34 -172 50 l-104
31 -391 -2 c-215 -1 -839 -6 -1386 -12z m-360 -273 l97 -158 -61 -3 c-34 -2
-92 -1 -131 3 l-70 7 -84 144 c-46 80 -80 148 -76 152 6 6 215 20 224 15 2 -1
47 -73 101 -160z m1301 130 c20 -21 228 -285 292 -370 7 -10 -29 -13 -175 -13
l-185 0 -156 199 c-86 110 -157 202 -157 205 0 3 80 6 178 6 l178 0 25 -27z
m692 10 l77 -6 1 -81 c0 -45 2 -134 5 -199 5 -102 3 -118 -9 -115 -8 1 -90 97
-183 212 l-167 209 99 -7 c54 -3 134 -9 177 -13z m-1497 2 c26 -5 56 -34 166
-163 74 -86 138 -163 143 -171 6 -11 -17 -12 -151 -6 l-159 7 -57 63 c-107
117 -228 257 -228 264 0 8 243 13 286 6z m-942 -21 c20 -20 20 -63 0 -92 -31
-45 -94 -15 -94 44 0 38 22 64 55 64 13 0 31 -7 39 -16z m2696 -5 c25 -5 62
-14 83 -20 l37 -10 0 -174 0 -173 -27 -6 c-16 -3 -58 -8 -95 -12 l-68 -6 0
206 c0 158 3 206 13 206 6 0 32 -5 57 -11z m-2712 -362 c23 -27 24 -62 2 -90
-26 -33 -52 -34 -80 -5 -24 26 -26 56 -4 86 17 25 65 30 82 9z m672 -70 l84
-45 -89 -4 -90 -3 -110 53 -110 53 115 -5 c113 -4 116 -5 200 -49z m-303 -52
l83 -31 -147 -106 -148 -105 -88 30 c-77 26 -87 31 -74 44 7 8 67 59 133 113
89 74 124 97 139 93 11 -3 57 -20 102 -38z m927 -258 l188 -82 -105 -3 -106
-3 -178 90 -178 89 95 -5 c92 -4 100 -7 284 -86z m-352 -23 c155 -79 170 -88
153 -100 -32 -24 -313 -174 -325 -174 -6 0 -81 34 -166 75 l-156 75 153 104
c85 58 158 105 162 105 5 1 85 -38 179 -85z m-817 -356 c143 -78 332 -180 420
-228 148 -81 669 -364 985 -536 467 -253 576 -314 585 -328 6 -10 6 -19 -2
-27 -11 -11 -74 23 -878 464 -382 210 -342 191 -348 165 -3 -13 -29 -131 -57
-263 -28 -132 -64 -301 -80 -375 -16 -74 -26 -138 -22 -142 6 -5 458 -288
1020 -637 193 -120 224 -146 192 -166 -5 -3 -58 24 -117 61 -99 62 -414 260
-1388 873 -198 125 -442 278 -542 341 -123 78 -183 121 -183 133 0 9 4 17 10
17 5 0 118 -68 252 -151 134 -84 344 -215 466 -291 123 -77 225 -138 226 -136
10 15 175 783 169 789 -4 4 -55 33 -113 64 -58 32 -224 123 -370 203 -146 80
-322 176 -392 214 -100 54 -126 73 -125 89 1 13 6 18 17 14 8 -3 132 -69 275
-147z m1915 1 c96 -45 179 -85 184 -90 6 -5 -22 -9 -70 -9 l-81 0 -184 89
-184 90 80 0 c80 1 82 1 255 -80z m-160 -130 c0 -4 -91 -43 -202 -88 l-202
-82 -173 83 c-95 46 -169 86 -165 90 4 3 86 49 182 101 l174 95 193 -96 c106
-53 193 -100 193 -103z m388 -400 l-51 -197 -81 38 c-44 21 -132 62 -195 92
l-114 53 244 107 c134 58 245 105 246 104 1 0 -21 -90 -49 -197z m383 164 c4
-1 -17 -85 -46 -185 l-52 -183 -94 -16 c-52 -9 -95 -15 -96 -14 -7 4 92 391
101 398 10 7 172 7 187 0z m-2794 -600 c187 -121 489 -319 1291 -843 155 -102
387 -253 514 -337 180 -117 232 -156 232 -172 0 -12 -3 -22 -7 -23 -8 -3 -222
136 -1080 702 -254 168 -609 402 -789 520 -234 154 -326 220 -325 232 1 10 5
18 9 18 4 0 74 -43 155 -97z"/>
<path d="M4103 3986 c-320 -239 -584 -440 -588 -446 -4 -6 -4 -14 -1 -17 5 -6
309 35 651 88 72 11 232 35 357 53 125 19 232 37 239 41 14 10 10 71 -30 433
-16 145 -33 268 -38 273 -6 6 -232 -157 -590 -425z"/>
<path d="M3672 3273 c2 -11 202 -145 508 -340 278 -177 509 -323 513 -323 12
0 188 371 185 389 -2 12 -46 26 -163 53 -1147 269 -1048 248 -1043 221z"/>
<path d="M3600 3018 c0 -18 7 -184 15 -368 8 -184 17 -405 21 -490 3 -85 9
-158 13 -162 10 -10 382 54 387 67 5 11 -37 111 -323 774 -49 113 -94 206
-101 209 -8 2 -12 -8 -12 -30z"/>
</g>
</svg>
